#define beta_width 32
#define beta_height 32
static unsigned char beta_bits[] = {
   0x00, 0x00, 0x00, 0x00, 0x00, 0x00, 0x00, 0x00, 0x00, 0x00, 0x00, 0x00,
   0x00, 0x00, 0x00, 0x00, 0x00, 0x00, 0x07, 0x00, 0x00, 0x80, 0x08, 0x00,
   0x00, 0x40, 0x18, 0x00, 0x00, 0x40, 0x10, 0x00, 0x00, 0x20, 0x18, 0x00,
   0x00, 0x20, 0x08, 0x00, 0x00, 0x30, 0x08, 0x00, 0x00, 0x10, 0x04, 0x00,
   0x00, 0x08, 0x02, 0x00, 0x00, 0xe8, 0x01, 0x00, 0x00, 0x08, 0x07, 0x00,
   0x00, 0x04, 0x0c, 0x00, 0x00, 0x04, 0x08, 0x00, 0x00, 0x04, 0x08, 0x00,
   0x00, 0x04, 0x08, 0x00, 0x00, 0x06, 0x06, 0x00, 0x00, 0xfa, 0x03, 0x00,
   0x00, 0x02, 0x00, 0x00, 0x00, 0x02, 0x00, 0x00, 0x00, 0x03, 0x00, 0x00,
   0x00, 0x01, 0x00, 0x00, 0x00, 0x01, 0x00, 0x00, 0x00, 0x01, 0x00, 0x00,
   0x00, 0x01, 0x00, 0x00, 0x00, 0x00, 0x00, 0x00, 0x00, 0x00, 0x00, 0x00,
   0x00, 0x00, 0x00, 0x00, 0x00, 0x00, 0x00, 0x00 };
